<?xml version="1.0" encoding="UTF-8"?>
<svg width="173px" height="37px" viewBox="0 0 173 37" version="1.1" xmlns="http://www.w3.org/2000/svg" xmlns:xlink="http://www.w3.org/1999/xlink">
    <!-- Generator: Sketch 53.2 (72643) - https://sketchapp.com -->
    <title>care of Logo</title>
    <desc>Created with Sketch.</desc>
    <g id="Page-1" stroke="none" stroke-width="1" fill="none" fill-rule="evenodd">
        <g id="Desktop-Active" transform="translate(-301.000000, -1616.000000)" fill="#342E1E" fill-rule="nonzero">
            <g id="Logos" transform="translate(94.000000, 1127.000000)">
                <g id="care-of-Logo" transform="translate(207.000000, 489.000000)">
                    <path d="M65.0733945,14.7751289 L65.0733945,11.5138706 L59.9863562,11.5138706 L59.9863562,36.3155384 L65.0733945,36.3155384 L65.0733945,24.0757543 C65.0733945,19.8079349 66.5384615,16.1843146 74.8405081,16.1843146 L74.8405081,11.3528208 C69.9976476,11.3528208 67.5151729,11.9164951 65.0733945,14.7751289 Z M108.21148,36.6779004 L113.257822,36.6779004 L122.617972,11.2722959 L117.57163,11.2722959 L108.21148,36.6779004 Z M140.809221,11.0307213 C133.483886,11.0307213 127.664314,16.9493011 127.664314,24.0354919 C127.664314,31.2022075 133.565279,37 140.809221,37 C148.09386,37 154.076217,31.1619451 154.076217,24.0354919 C154.076217,16.9090386 148.09386,11.0307213 140.809221,11.0307213 Z M140.849918,32.2892936 C136.251235,32.2892936 132.66996,28.544886 132.66996,24.0757543 C132.66996,19.6871475 136.169842,15.7816901 140.849918,15.7816901 C145.407904,15.7816901 149.029875,19.4858353 149.029875,23.9952294 C149.029875,28.4240986 145.489297,32.2892936 140.849918,32.2892936 Z M47.7367678,14.694604 C45.5798636,12.2385947 42.7311221,11.0307213 39.3533286,11.0307213 C32.0279934,11.0307213 26.0863326,16.6674639 26.0863326,24.0354919 C26.0863326,31.2827324 31.9059045,37 39.3533286,37 C42.7311221,37 45.6205599,35.832389 47.7367678,33.3763797 L47.7367678,36.3155384 L52.8238062,36.3155384 L52.8238062,11.5138706 L47.7367678,11.5138706 L47.7367678,14.694604 L47.7367678,14.694604 Z M39.3126323,32.3295561 C34.5918607,32.3295561 31.0512821,28.7059358 31.0512821,24.0757543 C31.0512821,19.4858353 34.5918607,15.8219525 39.3126323,15.8219525 C44.0741002,15.8219525 47.6146789,19.5663602 47.6146789,24.0757543 C47.6146789,28.544886 44.1554928,32.3295561 39.3126323,32.3295561 Z M19.0865679,29.8332843 C17.6215008,31.3229949 15.5866855,32.2892936 13.266996,32.2892936 C8.62761703,32.2892936 5.04634204,28.544886 5.04634204,24.0757543 C5.04634204,19.6468851 8.58692072,15.7816901 13.1856034,15.7816901 C15.4239003,15.7816901 17.4994119,16.7077264 18.9644789,18.1571745 L22.3829687,14.7751289 C20.0225829,12.4801694 16.7668784,11.0307213 13.1856034,11.0307213 C5.81957187,11.0307213 0,16.9493011 0,24.0354919 C0,31.2022075 5.90096448,37 13.1449071,37 C16.7668784,37 20.1039755,35.5505519 22.4643613,33.1750675 L19.1679605,29.9138092 L19.0865679,29.8332843 L19.0865679,29.8332843 Z M89.9388379,11.0307213 C82.4507175,11.0307213 77.1195013,17.0700884 77.1195013,24.0354919 C77.1195013,31.3632573 82.9797695,37 90.2644084,37 C94.1305575,37 97.6711362,35.4297645 100.031522,32.772443 L96.8979064,29.6722345 L96.7758175,29.5917096 C95.1479652,31.4035198 92.7061868,32.410081 90.2237121,32.410081 C85.9505999,32.410081 82.7762879,29.4709223 82.0844507,25.7667771 L102.636086,25.7667771 C102.676782,25.1628404 102.758175,24.6394286 102.758175,23.954967 C102.798871,17.029826 97.3862621,11.0307213 89.9388379,11.0307213 L89.9388379,11.0307213 Z M82.2879323,21.619745 C83.183251,18.2376994 86.0726888,15.6206403 89.9795342,15.6206403 C93.927076,15.6206403 97.0199953,18.2779618 97.5897436,21.619745 L82.2879323,21.619745 Z M171.697718,5.07187901 C172.063985,5.07187901 172.511644,5.07187901 173,5.11214146 L173,0.119597949 C173,0.119597949 166.692072,-0.806438347 163.354975,2.49508236 C161.808516,4.02505537 161.035286,6.27975244 161.035286,9.21891112 L161.035286,11.5138706 L157.331922,11.5138706 L157.331922,16.2648395 L161.035286,16.2648395 L161.035286,36.3155384 L166.16302,36.3155384 L166.16302,16.2648395 L172.389555,16.2648395 L172.389555,11.5138706 L166.16302,11.5138706 L166.16302,10.1449474 C166.122324,6.48106468 167.872265,5.07187901 171.697718,5.07187901 L171.697718,5.07187901 Z" id="Shape"></path>
                </g>
            </g>
        </g>
    </g>
</svg>