<?xml version="1.0" encoding="UTF-8"?>
<svg width="147px" height="47px" viewBox="0 0 147 47" version="1.1" xmlns="http://www.w3.org/2000/svg" xmlns:xlink="http://www.w3.org/1999/xlink">
    <!-- Generator: Sketch 53.2 (72643) - https://sketchapp.com -->
    <title>Casper Logo</title>
    <desc>Created with Sketch.</desc>
    <g id="Page-1" stroke="none" stroke-width="1" fill="none" fill-rule="evenodd">
        <g id="Desktop-Active" transform="translate(-647.000000, -1127.000000)" fill="#342E1E" fill-rule="nonzero">
            <g id="Logos" transform="translate(94.000000, 1127.000000)">
                <g id="Casper-Logo" transform="translate(553.000000, 0.000000)">
                    <path d="M46.3442197,11 C39.3182833,11 34,15.9407073 34,22.9920248 C34,30.0433423 39.3426193,34.984206 46.3442197,34.984206 C49.7106949,34.984206 52.2966696,33.4731424 53.3456611,32.2740494 L53.3456611,34.6723918 L58.8347733,34.6723918 L58.8347733,11.2878887 L53.3456611,11.2878887 L53.3456611,13.6863874 C52.2966696,12.4869817 49.5400251,11 46.3442197,11 L46.3442197,11 Z M46.4905536,30.0433423 C42.3677547,30.0433423 39.3182833,26.9014308 39.3182833,22.9920248 C39.3182833,19.0826188 42.5140887,15.9407073 46.4905536,15.9407073 C50.4670186,15.9407073 53.492154,19.0826188 53.492154,22.9920248 C53.492154,26.9014308 50.4670186,30.0433423 46.4905536,30.0433423 L46.4905536,30.0433423 Z M93.5983024,11 C90.402338,11 87.9628563,12.199093 86.4258731,13.7101566 L86.4258731,11.3118142 L81.1077488,11.3118142 L81.1077488,47 L86.4503681,46.4004535 L86.4503681,32.1539524 C87.9873513,33.8088822 90.573326,34.864109 93.6227975,34.864109 C100.941402,34.864109 105.820524,30.2112904 105.820524,22.8720842 C105.79587,15.6528187 100.941243,11 93.5983024,11 L93.5983024,11 Z M93.4518095,30.0433423 C89.1825176,30.0433423 86.450209,27.0454534 86.450209,22.9920248 C86.450209,18.9387526 89.2070127,15.9407073 93.4518095,15.9407073 C97.7211013,15.9407073 100.62408,18.9387526 100.62408,22.9920248 C100.477746,27.0454534 97.7211013,30.0433423 93.4518095,30.0433423 L93.4518095,30.0433423 Z M146.975505,11 C143.633366,11 141.779379,12.199093 140.730228,13.7101566 L140.730228,11.3118142 L135.387609,11.3118142 L135.387609,34.6963173 L140.730228,34.6963173 L140.730228,21.7927754 C140.730228,18.3390498 143.169869,15.9407073 146.536344,15.9407073 L147,15.9407073 C146.975505,15.9407073 146.975505,11 146.975505,11 Z M120.14057,11 C113.138969,11 107.650016,16.3963877 107.650016,22.9920248 C107.650016,29.5876619 113.139128,34.984206 120.14057,34.984206 C125.946686,34.984206 130.654979,31.8421382 132.191963,27.6449999 L125.775857,27.6449999 C125.019692,29.1559071 123.019212,30.1873648 120.14057,30.1873648 C116.627602,30.1873648 113.895293,27.788866 113.285303,24.7908207 L132.338137,24.7908207 C132.48463,24.1912742 132.48463,23.5917277 132.48463,22.9920248 C132.48463,16.3963877 126.995677,11 120.14057,11 L120.14057,11 Z M113.57813,20.138002 C114.334295,17.7395032 116.944605,15.7968412 120.14057,15.7968412 C123.190041,15.7968412 125.946686,17.7395032 126.703009,20.138002 L113.57813,20.138002 Z M70.2761764,15.6528187 C69.2026899,15.6528187 67.9830286,16.108499 67.9830286,17.4516146 C67.9830286,18.9626782 69.5198528,19.394433 72.3986543,20.4496599 C76.3507833,21.9607235 78.3511043,23.7595194 78.3511043,27.3571112 C78.3511043,31.0987255 75.1552989,35.0081316 69.6661867,35.0081316 C64.1772335,35.0081316 61.274096,30.954703 61.1277621,27.6689254 L66.3240474,27.6689254 C66.6412103,29.1798327 67.8608716,30.3790821 69.6905226,30.3790821 C71.6666667,30.3790821 72.8864871,29.0359665 72.8864871,27.5249029 C72.8864871,26.469676 72.4229903,25.2704266 69.080692,24.3829915 C65.4213899,23.4716307 62.8354152,21.5289687 62.8354152,17.6434882 C62.8354152,14.0457401 66.0312205,11.1917173 70.1540194,11.1917173 C73.8134806,11.1917173 76.1066284,13.7340822 77.1556198,15.389012 L72.7399941,17.331674 C72.1058275,16.0845735 71.2031699,15.6528187 70.2761764,15.6528187 L70.2761764,15.6528187 Z" id="Shape"></path>
                    <path d="M17.2764844,0 C7.48804016,0 0,7.80019933 0,17.5 C0,27.2001267 7.48819971,35 17.2764844,35 C23.5410887,35 29.3651731,31.5499432 31.9589911,26.7249818 L26.9179822,23.8998668 C24.9358821,27.4998836 21.558829,29.5249949 17.2763248,29.5249949 C14.2174161,29.5249949 11.1585073,28.2749483 9.17640717,26.0749381 C7.02294945,23.7249679 5.82376531,20.7498929 5.82376531,17.624858 C5.82376531,14.499986 7.04736073,11.524911 9.17640717,9.17494085 C11.1585073,6.97493061 14.0706293,5.72488404 17.2763248,5.72488404 C20.653378,5.72488404 22.6354781,6.82497066 24.0058603,7.92489428 C25.5476001,9.02481791 27.064769,10.1249045 29.6587466,10.1249045 C34.4060224,10.1249045 36.5350688,6.22480487 37,4.17491757 L31.6408467,3.07483095 C31.6408467,3.22495389 31.1759156,4.79985935 29.6587466,4.79985935 C28.9000824,4.79985935 28.4351512,4.47483747 27.3585021,3.69993573 C25.4008133,1.87515136 22.7824244,0 17.2764844,0" id="Path"></path>
                </g>
            </g>
        </g>
    </g>
</svg>