<?xml version="1.0" encoding="UTF-8"?>
<svg width="303px" height="38px" viewBox="0 0 303 38" version="1.1" xmlns="http://www.w3.org/2000/svg" xmlns:xlink="http://www.w3.org/1999/xlink">
    <!-- Generator: Sketch 53.2 (72643) - https://sketchapp.com -->
    <title>Digital McKinsey logo</title>
    <desc>Created with Sketch.</desc>
    <g id="Page-1" stroke="none" stroke-width="1" fill="none" fill-rule="evenodd">
        <g id="Desktop-Active" transform="translate(-941.000000, -1134.000000)">
            <g id="Logos" transform="translate(94.000000, 1127.000000)">
                <g id="Digital-McKinsey-logo" transform="translate(847.000000, 7.000000)">
                    <path d="M6.25277607e-13,0 L9.594,0 C12.2180131,0 14.3978247,0.4099959 16.1335,1.23 C17.8691753,2.0500041 19.2563281,3.1433265 20.295,4.51 C21.3336719,5.8766735 22.0648312,7.43465792 22.4885,9.184 C22.9121688,10.9333421 23.124,12.737324 23.124,14.596 C23.124,16.6733437 22.8575027,18.6071577 22.3245,20.3975 C21.7914973,22.1878423 20.9646723,23.7389934 19.844,25.051 C18.7233277,26.3630066 17.3088419,27.3948296 15.6005,28.1465 C13.8921581,28.8981704 11.8626784,29.274 9.512,29.274 L6.25277607e-13,29.274 L6.25277607e-13,0 Z M9.676,27.716 C11.0426735,27.716 12.4161598,27.5041688 13.7965,27.0805 C15.1768402,26.6568312 16.4273277,25.9461717 17.548,24.9485 C18.6686723,23.9508283 19.5774965,22.6115084 20.2745,20.9305 C20.9715035,19.2494916 21.32,17.1380127 21.32,14.596 C21.32,12.6006567 21.1218353,10.8923404 20.7255,9.471 C20.3291647,8.04965956 19.8098365,6.85383818 19.1675,5.8835 C18.5251635,4.91316181 17.7871708,4.14783613 16.9535,3.5875 C16.1198292,3.02716386 15.2588378,2.59666817 14.3705,2.296 C13.4821622,1.99533183 12.5938378,1.79716714 11.7055,1.7015 C10.8171622,1.60583285 10.0176702,1.558 9.307,1.558 L1.804,1.558 L1.804,27.716 L9.676,27.716 Z M28.529,4.223 L28.529,0 L30.087,0 L30.087,4.223 L28.529,4.223 Z M28.529,29.274 L28.529,8.2 L30.087,8.2 L30.087,29.274 L28.529,29.274 Z M53.573,8.2 L53.573,28.167 C53.573,29.3423392 53.4363347,30.4834945 53.163,31.5905 C52.8896653,32.6975055 52.4181701,33.6746624 51.7485,34.522 C51.07883,35.3693376 50.1563393,36.0458308 48.981,36.5515 C47.8056608,37.0571692 46.3160091,37.31 44.512,37.31 C43.3913278,37.31 42.339005,37.1938345 41.355,36.9615 C40.3709951,36.7291655 39.5100037,36.3601692 38.772,35.8545 C38.0339964,35.3488308 37.4395023,34.6791708 36.9885,33.8455 C36.5374978,33.0118292 36.284667,31.9800061 36.23,30.75 L37.788,30.75 C37.8700005,31.679338 38.1023315,32.4719967 38.485,33.128 C38.8676686,33.7840033 39.366497,34.3238312 39.9815,34.7475 C40.5965031,35.1711688 41.2866629,35.4786657 42.052,35.67 C42.8173372,35.8613343 43.637329,35.957 44.512,35.957 C45.960674,35.957 47.1701619,35.7383355 48.1405,35.301 C49.1108382,34.8636645 49.8829972,34.2965035 50.457,33.5995 C51.0310029,32.9024965 51.4341656,32.1098378 51.6665,31.2215 C51.8988345,30.3331622 52.015,29.4380045 52.015,28.536 L52.015,23.698 L51.933,23.698 C51.1949964,25.2560078 50.1905064,26.4449959 48.9195,27.265 C47.6484937,28.0850041 46.1110091,28.495 44.307,28.495 C42.7489923,28.495 41.4028391,28.2285027 40.2685,27.6955 C39.134161,27.1624973 38.1911705,26.4245047 37.4395,25.4815 C36.6878296,24.5384953 36.1275019,23.4383396 35.7585,22.181 C35.3894982,20.9236604 35.205,19.5570074 35.205,18.081 C35.205,16.686993 35.4031647,15.3613396 35.7995,14.104 C36.1958354,12.8466604 36.7766629,11.7465047 37.542,10.8035 C38.3073372,9.86049528 39.257161,9.10883613 40.3915,8.5485 C41.5258391,7.98816386 42.8309927,7.708 44.307,7.708 C45.9743417,7.708 47.5118263,8.13166243 48.9195,8.979 C50.3271738,9.82633757 51.3316637,11.0289922 51.933,12.587 L52.015,12.587 L52.015,8.2 L53.573,8.2 Z M44.307,9.061 C43.022327,9.061 41.9085048,9.32066407 40.9655,9.84 C40.0224953,10.3593359 39.2435031,11.0426624 38.6285,11.89 C38.013497,12.7373376 37.548835,13.7008279 37.2345,14.7805 C36.9201651,15.8601721 36.763,16.9603277 36.763,18.081 C36.763,19.3110061 36.9201651,20.4794945 37.2345,21.5865 C37.548835,22.6935055 38.0271635,23.6569959 38.6695,24.477 C39.3118366,25.2970041 40.1044953,25.9461643 41.0475,26.4245 C41.9905048,26.9028357 43.0769939,27.142 44.307,27.142 C45.5916731,27.142 46.7123286,26.8960025 47.669,26.404 C48.6256715,25.9119975 49.4251635,25.2423376 50.0675,24.395 C50.7098366,23.5476624 51.1881651,22.5841721 51.5025,21.5045 C51.816835,20.4248279 51.974,19.2836727 51.974,18.081 C51.974,16.9056608 51.816835,15.7713388 51.5025,14.678 C51.1881651,13.5846612 50.7098366,12.6211708 50.0675,11.7875 C49.4251635,10.9538292 48.6256715,10.2910025 47.669,9.799 C46.7123286,9.30699754 45.5916731,9.061 44.307,9.061 Z M59.6340001,4.223 L59.6340001,0 L61.1920001,0 L61.1920001,4.223 L59.6340001,4.223 Z M59.6340001,29.274 L59.6340001,8.2 L61.1920001,8.2 L61.1920001,29.274 L59.6340001,29.274 Z M75.0020001,9.553 L70.4100001,9.553 L70.4100001,24.272 C70.4100001,25.1193376 70.5056658,25.7889975 70.6970001,26.281 C70.8883344,26.7730025 71.1821648,27.148832 71.5785001,27.4085 C71.9748354,27.668168 72.453164,27.8253331 73.0135001,27.88 C73.5738362,27.9346669 74.2229964,27.9483335 74.9610001,27.921 L74.9610001,29.274 C74.1683295,29.3286669 73.3961705,29.3218337 72.6445001,29.2535 C71.8928297,29.1851663 71.230003,28.9801684 70.6560001,28.6385 C70.0819972,28.2968316 69.6241685,27.7843367 69.2825001,27.101 C68.9408317,26.4176632 68.7973332,25.4746727 68.8520001,24.272 L68.8520001,9.553 L64.9570001,9.553 L64.9570001,8.2 L68.8520001,8.2 L68.8520001,1.64 L70.4100001,1.64 L70.4100001,8.2 L75.0020001,8.2 L75.0020001,9.553 Z M92.9530001,25.092 L92.8710001,25.092 C92.6249989,25.7206698 92.2696691,26.3151639 91.8050001,26.8755 C91.3403311,27.4358361 90.7731701,27.9346645 90.1035001,28.372 C89.4338301,28.8093355 88.6753377,29.1509988 87.8280001,29.397 C86.9806625,29.6430012 86.0513385,29.766 85.0400001,29.766 C82.7986556,29.766 81.0630063,29.2808382 79.8330001,28.3105 C78.602994,27.3401618 77.9880001,25.8436768 77.9880001,23.821 C77.9880001,22.5909938 78.2339977,21.5865039 78.7260001,20.8075 C79.2180026,20.0284961 79.8398297,19.4135023 80.5915001,18.9625 C81.3431705,18.5114977 82.1768289,18.1903343 83.0925001,17.999 C84.0081714,17.8076657 84.8896625,17.6710004 85.7370001,17.589 L88.1560001,17.384 C89.2766724,17.3019996 90.1581636,17.1721676 90.8005001,16.9945 C91.4428367,16.8168324 91.9279985,16.5708349 92.2560001,16.2565 C92.5840018,15.9421651 92.7889997,15.5390025 92.8710001,15.047 C92.9530005,14.5549975 92.9940001,13.9400037 92.9940001,13.202 C92.9940001,12.6279971 92.8846679,12.0950025 92.6660001,11.603 C92.4473324,11.1109975 92.1056691,10.6736686 91.6410001,10.291 C91.1763311,9.90833142 90.5750038,9.60766776 89.8370001,9.389 C89.0989964,9.17033224 88.1970054,9.061 87.1310001,9.061 C85.2449907,9.061 83.7211726,9.52566202 82.5595001,10.455 C81.3978276,11.384338 80.762334,12.7919906 80.6530001,14.678 L79.0950001,14.678 C79.204334,12.354655 79.9491599,10.6121725 81.3295001,9.4505 C82.7098404,8.28882752 84.6709874,7.708 87.2130001,7.708 C89.7550128,7.708 91.6068276,8.20682834 92.7685001,9.2045 C93.9301726,10.2021717 94.5110001,11.5073253 94.5110001,13.12 L94.5110001,25.379 C94.5110001,25.6796682 94.5178334,25.9803318 94.5315001,26.281 C94.5451669,26.5816682 94.5929997,26.8549988 94.6750001,27.101 C94.7570005,27.3470012 94.8936658,27.5451659 95.0850001,27.6955 C95.2763344,27.8458341 95.549665,27.921 95.9050001,27.921 C96.1783348,27.921 96.5609977,27.8800004 97.0530001,27.798 L97.0530001,29.11 C96.6429981,29.2193339 96.2193356,29.274 95.7820001,29.274 C95.1533303,29.274 94.654502,29.1920008 94.2855001,29.028 C93.9164983,28.8639992 93.6363344,28.6453347 93.4450001,28.372 C93.2536658,28.0986653 93.1238338,27.7775018 93.0555001,27.4085 C92.9871664,27.0394982 92.9530001,26.6363355 92.9530001,26.199 L92.9530001,25.092 Z M92.9530001,17.302 C92.5703315,17.766669 91.989504,18.0809992 91.2105001,18.245 C90.4314962,18.4090008 89.5636716,18.5319996 88.6070001,18.614 L85.9830001,18.86 C85.217663,18.9420004 84.4523373,19.0581659 83.6870001,19.2085 C82.921663,19.3588341 82.2315032,19.6116649 81.6165001,19.967 C81.001497,20.3223351 80.5026687,20.8074969 80.1200001,21.4225 C79.7373315,22.0375031 79.5460001,22.8369951 79.5460001,23.821 C79.5460001,25.3790078 80.0379952,26.5338296 81.0220001,27.2855 C82.006005,28.0371704 83.3589915,28.413 85.0810001,28.413 C86.8576757,28.413 88.2653283,28.0918365 89.3040001,27.4495 C90.342672,26.8071635 91.1353307,26.0691708 91.6820001,25.2355 C92.2286695,24.4018292 92.577166,23.5955039 92.7275001,22.8165 C92.8778342,22.0374961 92.9530001,21.5113347 92.9530001,21.238 L92.9530001,17.302 Z M102.499,0 L102.499,29.274 L100.941,29.274 L100.941,0 L102.499,0 Z" id="Digital" fill="#342E1E" fill-rule="nonzero"></path>
                    <path d="M133,1.13686838e-13 L135.583,1.13686838e-13 L147.022,27.265 L147.104,27.265 L158.42,1.13686838e-13 L161.003,1.13686838e-13 L161.003,29.274 L159.199,29.274 L159.199,2.214 L159.117,2.214 L147.965,29.274 L146.161,29.274 L134.886,2.214 L134.804,2.214 L134.804,29.274 L133,29.274 L133,1.13686838e-13 Z M182.469,14.719 C182.387,13.789662 182.147835,12.9696702 181.7515,12.259 C181.355165,11.5483298 180.84267,10.960669 180.214,10.496 C179.58533,10.031331 178.854171,9.67600123 178.0205,9.43 C177.186829,9.18399877 176.291671,9.061 175.335,9.061 C174.022993,9.061 172.861338,9.32749733 171.85,9.8605 C170.838662,10.3935027 169.991337,11.1041622 169.308,11.9925 C168.624663,12.8808378 168.105335,13.892161 167.75,15.0265 C167.394665,16.160839 167.217,17.3293273 167.217,18.532 C167.217,19.9533404 167.380998,21.2653273 167.709,22.468 C168.037002,23.6706727 168.542663,24.7161622 169.226,25.6045 C169.909337,26.4928378 170.756662,27.1829975 171.768,27.675 C172.779338,28.1670025 173.968327,28.413 175.335,28.413 C176.319005,28.413 177.227829,28.2490016 178.0615,27.921 C178.895171,27.5929984 179.633163,27.1420029 180.2755,26.568 C180.917837,25.9939971 181.443998,25.3038374 181.854,24.4975 C182.264002,23.6911626 182.537333,22.8096714 182.674,21.853 L184.232,21.853 C184.067999,23.1103396 183.726336,24.2309951 183.207,25.215 C182.687664,26.1990049 182.031671,27.02583 181.239,27.6955 C180.446329,28.36517 179.544338,28.8776649 178.533,29.233 C177.521662,29.5883351 176.455672,29.766 175.335,29.766 C173.612991,29.766 172.143839,29.4585031 170.9275,28.8435 C169.711161,28.2284969 168.713504,27.4016719 167.9345,26.363 C167.155496,25.3243281 166.581502,24.1285068 166.2125,22.7755 C165.843498,21.4224932 165.659,20.0080074 165.659,18.532 C165.659,17.0559926 165.870831,15.6620066 166.2945,14.35 C166.718169,13.0379934 167.339996,11.8900049 168.16,10.906 C168.980004,9.92199508 169.991327,9.14300287 171.194,8.569 C172.396673,7.99499713 173.776992,7.708 175.335,7.708 C176.483006,7.708 177.555828,7.85149857 178.5535,8.1385 C179.551172,8.42550144 180.439496,8.85599713 181.2185,9.43 C181.997504,10.0040029 182.632998,10.7351622 183.125,11.6235 C183.617002,12.5118378 183.917666,13.5436608 184.027,14.719 L182.469,14.719 Z M188.888,1.13686838e-13 L190.692,1.13686838e-13 L190.692,16.851 L209.101,1.13686838e-13 L211.438,1.13686838e-13 L198.072,12.177 L212.258,29.274 L210.003,29.274 L196.76,13.407 L190.692,18.942 L190.692,29.274 L188.888,29.274 L188.888,1.13686838e-13 Z M214.823,4.223 L214.823,1.13686838e-13 L216.381,1.13686838e-13 L216.381,4.223 L214.823,4.223 Z M214.823,29.274 L214.823,8.2 L216.381,8.2 L216.381,29.274 L214.823,29.274 Z M222.062,8.2 L223.62,8.2 L223.62,12.71 L223.702,12.71 C223.975335,11.9173294 224.364831,11.2135031 224.8705,10.5985 C225.376169,9.98349692 225.96383,9.45733552 226.6335,9.02 C227.30317,8.58266448 228.034329,8.25466776 228.827,8.036 C229.619671,7.81733224 230.425996,7.708 231.246,7.708 C232.476006,7.708 233.521496,7.85833183 234.3825,8.159 C235.243504,8.45966817 235.947331,8.85599754 236.494,9.348 C237.04067,9.84000246 237.471165,10.3934969 237.7855,11.0085 C238.099835,11.6235031 238.325333,12.2453302 238.462,12.874 C238.598667,13.5026698 238.680667,14.1108304 238.708,14.6985 C238.735334,15.2861696 238.749,15.7986645 238.749,16.236 L238.749,29.274 L237.191,29.274 L237.191,15.949 C237.191,15.4296641 237.150001,14.7736706 237.068,13.981 C236.986,13.1883294 236.746835,12.429837 236.3505,11.7055 C235.954165,10.981163 235.352837,10.3593359 234.5465,9.84 C233.740163,9.32066407 232.626341,9.061 231.205,9.061 C230.002327,9.061 228.936338,9.27966448 228.007,9.717 C227.077662,10.1543355 226.285003,10.7624961 225.629,11.5415 C224.972997,12.3205039 224.474168,13.2498279 224.1325,14.3295 C223.790832,15.4091721 223.62,16.5913269 223.62,17.876 L223.62,29.274 L222.062,29.274 L222.062,8.2 Z M244.799,22.263 C244.853667,23.2470049 245.072332,24.1148296 245.455,24.8665 C245.837669,25.6181704 246.336497,26.2604973 246.9515,26.7935 C247.566503,27.3265027 248.283996,27.7296653 249.104,28.003 C249.924004,28.2763347 250.812329,28.413 251.769,28.413 C252.452337,28.413 253.183496,28.3515006 253.9625,28.2285 C254.741504,28.1054994 255.46583,27.8800016 256.1355,27.552 C256.80517,27.2239984 257.358665,26.7661696 257.796,26.1785 C258.233336,25.5908304 258.452,24.8460045 258.452,23.944 C258.452,22.7686608 258.09667,21.8803363 257.386,21.279 C256.67533,20.6776637 255.780172,20.2130016 254.7005,19.885 C253.620828,19.5569984 252.459173,19.290501 251.2155,19.0855 C249.971827,18.880499 248.810172,18.573002 247.7305,18.163 C246.650828,17.7529979 245.75567,17.1721704 245.045,16.4205 C244.33433,15.6688296 243.979,14.5686739 243.979,13.12 C243.979,12.0813281 244.211331,11.2135035 244.676,10.5165 C245.140669,9.81949651 245.735163,9.26600205 246.4595,8.856 C247.183837,8.44599795 247.996996,8.15216755 248.899,7.9745 C249.801005,7.79683244 250.702996,7.708 251.605,7.708 C252.698339,7.708 253.723329,7.83099877 254.68,8.077 C255.636672,8.32300123 256.463497,8.7193306 257.1605,9.266 C257.857504,9.8126694 258.404165,10.5096624 258.8005,11.357 C259.196835,12.2043376 259.395,13.2293273 259.395,14.432 L257.837,14.432 C257.837,13.4753285 257.679835,12.6553367 257.3655,11.972 C257.051165,11.2886633 256.613836,10.7351688 256.0535,10.3115 C255.493164,9.88783121 254.830337,9.57350102 254.065,9.3685 C253.299663,9.16349897 252.479671,9.061 251.605,9.061 C250.89433,9.061 250.176837,9.12933265 249.4525,9.266 C248.728163,9.40266735 248.079003,9.63499836 247.505,9.963 C246.930997,10.2910016 246.459502,10.7146641 246.0905,11.234 C245.721498,11.7533359 245.537,12.3819963 245.537,13.12 C245.537,13.9673376 245.741998,14.6506641 246.152,15.17 C246.562002,15.6893359 247.10183,16.1061651 247.7715,16.4205 C248.44117,16.7348349 249.192829,16.9876657 250.0265,17.179 C250.860171,17.3703343 251.700663,17.5616657 252.548,17.753 C253.586672,17.9443343 254.563829,18.169832 255.4795,18.4295 C256.395171,18.689168 257.18783,19.0444977 257.8575,19.4955 C258.52717,19.9465023 259.053332,20.5273298 259.436,21.238 C259.818669,21.9486702 260.01,22.8506612 260.01,23.944 C260.01,25.0920057 259.750336,26.0349963 259.231,26.773 C258.711664,27.5110037 258.055671,28.1054977 257.263,28.5565 C256.47033,29.0075023 255.588838,29.3218324 254.6185,29.4995 C253.648162,29.6771676 252.698338,29.766 251.769,29.766 C250.566327,29.766 249.452505,29.6088349 248.4275,29.2945 C247.402495,28.9801651 246.507337,28.5018365 245.742,27.8595 C244.976663,27.2171635 244.375336,26.431338 243.938,25.502 C243.500665,24.572662 243.268334,23.4930062 243.241,22.263 L244.799,22.263 Z M265.117,18.942 L265.117,19.188 C265.117,20.4180061 265.280999,21.5933277 265.609,22.714 C265.937002,23.8346723 266.422164,24.8186624 267.0645,25.666 C267.706837,26.5133376 268.513162,27.1829975 269.4835,27.675 C270.453838,28.1670025 271.581327,28.413 272.866,28.413 C274.970677,28.413 276.637994,27.8595055 277.868,26.7525 C279.098006,25.6454945 279.945331,24.1080098 280.41,22.14 L281.968,22.14 C281.503331,24.6000123 280.498841,26.4859934 278.9545,27.798 C277.410159,29.1100066 275.367013,29.766 272.825,29.766 C271.266992,29.766 269.907173,29.4858361 268.7455,28.9255 C267.583828,28.3651639 266.613504,27.5998382 265.8345,26.6295 C265.055496,25.6591618 264.474669,24.5111733 264.092,23.1855 C263.709332,21.8598267 263.518,20.4316743 263.518,18.901 C263.518,17.4249926 263.716165,16.0105068 264.1125,14.6575 C264.508835,13.3044932 265.10333,12.1155051 265.896,11.0905 C266.688671,10.0654949 267.679494,9.24550308 268.8685,8.6305 C270.057506,8.01549693 271.458325,7.708 273.071,7.708 C274.547008,7.708 275.852161,7.9813306 276.9865,8.528 C278.120839,9.0746694 279.070663,9.81949529 279.836,10.7625 C280.601337,11.7055047 281.182165,12.7988271 281.5785,14.0425 C281.974835,15.2861729 282.173,16.6186596 282.173,18.04 C282.173,18.1766674 282.166167,18.3338324 282.1525,18.5115 C282.138833,18.6891676 282.132,18.8326661 282.132,18.942 L265.117,18.942 Z M280.574,17.589 C280.519333,16.4409943 280.328002,15.3545051 280,14.3295 C279.671999,13.3044949 279.186837,12.4025039 278.5445,11.6235 C277.902164,10.8444961 277.123171,10.222669 276.2075,9.758 C275.291829,9.29333101 274.246339,9.061 273.071,9.061 C271.813661,9.061 270.706672,9.30016427 269.75,9.7785 C268.793329,10.2568357 267.987003,10.8854961 267.331,11.6645 C266.674997,12.4435039 266.169335,13.3523281 265.814,14.391 C265.458665,15.4296719 265.240001,16.4956612 265.158,17.589 L280.574,17.589 Z M283.959,8.2 L285.804,8.2 L293.635,27.429 L300.851,8.2 L302.614,8.2 L293.594,31.529 C293.156665,32.5676719 292.753502,33.4628296 292.3845,34.2145 C292.015498,34.9661704 291.598669,35.5196649 291.134,35.875 C290.587331,36.3123355 289.938171,36.5788329 289.1865,36.6745 C288.43483,36.7701671 287.444006,36.818 286.214,36.818 L286.214,35.465 C287.334672,35.465 288.20933,35.3761676 288.838,35.1985 C289.46667,35.0208324 290.054331,34.6586694 290.601,34.112 C290.901668,33.8113318 291.215999,33.2578374 291.544,32.4515 C291.872002,31.6451626 292.281998,30.545007 292.774,29.151 L283.959,8.2 Z" id="McKinsey" fill="#342E1E" fill-rule="nonzero"></path>
                    <polygon id="Path-3" stroke="#030303" stroke-width="0.3" fill="#000000" points="106.417 29.274 111.917 29.274 128.417 0.274 122.917 0.274"></polygon>
                </g>
            </g>
        </g>
    </g>
</svg>