<?xml version="1.0" encoding="UTF-8"?>
<svg width="207px" height="46px" viewBox="0 0 207 46" version="1.1" xmlns="http://www.w3.org/2000/svg" xmlns:xlink="http://www.w3.org/1999/xlink">
    <!-- Generator: Sketch 53.2 (72643) - https://sketchapp.com -->
    <title>DVF Logo</title>
    <desc>Created with Sketch.</desc>
    <g id="Page-1" stroke="none" stroke-width="1" fill="none" fill-rule="evenodd" opacity="0.991443452">
        <g id="Desktop-Active" transform="translate(-1142.000000, -1269.000000)">
            <g id="Logos" transform="translate(94.000000, 1127.000000)">
                <g id="DVF-Logo" transform="translate(1048.000000, 142.000000)">
                    <path d="M8.88696959,17.1137242 C9.57654383,17.1137242 10.1894383,17.0391922 10.8790125,16.8148003 C11.491907,16.5906737 12.1048014,16.2169525 12.5643363,15.7686993 C13.1008229,15.2453836 13.4839499,14.6475358 13.7903971,13.8255614 C14.0968444,13.003587 14.249932,12.0320181 14.249932,10.9111198 C14.249932,9.86501882 14.1732522,8.89344987 13.9434848,8.07147548 C13.7134454,7.24923586 13.4069982,6.50205876 12.8707835,5.90394574 C12.4112487,5.30609796 11.7216744,4.85784475 10.9554204,4.48412358 C10.1894383,4.18519969 9.19341682,4.03560512 8.04430769,4.03560512 L4.67338819,4.03560512 L4.67338819,17.2633188 L8.88696959,17.2633188 L8.88696959,17.1137242 Z M9.2700966,0 C10.6489732,0 11.9514419,0.224391846 13.1008229,0.67264506 C14.3266118,1.12089827 15.3226333,1.71874605 16.1655671,2.61578296 C17.008229,3.51255463 17.6978032,4.55865562 18.2340179,5.82914846 C18.6935528,7.0996413 19,8.66905802 19,10.3880693 C19,11.8826888 18.7699606,13.3025109 18.3871055,14.5730038 C18.0039785,15.8434966 17.3910841,16.9643949 16.5481503,17.9359638 C15.7054884,18.9075328 14.7094669,19.5799126 13.483678,20.1780256 C12.2576172,20.7010761 10.8787406,21 9.1931449,21 L0,21 L0,0.0747972819 L9.27036852,0.0747972819 L9.27036852,0 L9.2700966,0 Z" id="Shape" fill="#342E1E" fill-rule="nonzero"></path>
                    <rect id="Rectangle" x="0" y="0" width="207" height="46"></rect>
                    <rect id="Rectangle" fill="#342E1E" fill-rule="nonzero" x="21" y="0" width="4" height="21"></rect>
                    <path d="M39.673947,12.9000418 L37.1099844,5.17513594 L37.0366615,5.17513594 L34.326053,12.9000418 L39.673947,12.9000418 Z M39.3809152,7.56538474e-15 L47,21 L42.3114925,21 L40.7730109,16.3500437 L33.1539262,16.3500437 L31.5421217,21 L27,21 L34.7654706,0 L39.3809152,0 L39.3809152,7.56538474e-15 Z" id="Shape" fill="#342E1E" fill-rule="nonzero"></path>
                    <polygon id="Path" fill="#342E1E" fill-rule="nonzero" points="52.6524701 0 61.4999323 14.1001749 61.5762689 14.1001749 61.5762689 0 66 0 66 21 61.2711933 21 52.4237311 6.97515591 52.3473945 6.97515591 52.3473945 21 48 21 48 0"></polygon>
                    <polygon id="Path" fill="#342E1E" fill-rule="nonzero" points="84.7878057 0 84.7878057 3.89990113 74.3870222 3.89990113 74.3870222 8.40005324 83.9387776 8.40005324 83.9387776 12.0002282 74.3870222 12.0002282 74.3870222 17.1748973 85 17.1748973 85 21 70 21 70 0"></polygon>
                    <polygon id="Path" fill="#342E1E" fill-rule="nonzero" points="153.785925 21 147 0 151.750067 0 156.424672 14.7752244 156.499866 14.7752244 161.249933 0 166 0 158.988226 21"></polygon>
                    <path d="M171.74456,13.0889467 C171.963472,13.8802052 172.25544,14.5992294 172.693264,15.2462746 C173.131347,15.8935751 173.715285,16.3971729 174.372021,16.7565574 C175.102073,17.1161971 175.904922,17.3318788 176.926943,17.3318788 C177.948705,17.3318788 178.824611,17.1161971 179.481606,16.7565574 C180.211399,16.3971729 180.722539,15.8935751 181.160363,15.2462746 C181.598187,14.5992294 181.890155,13.8799499 182.109067,13.0889467 C182.328238,12.2976882 182.401036,11.4349612 182.401036,10.6437027 C182.401036,9.78072052 182.328238,8.91773829 182.109067,8.05450081 C181.890155,7.26349758 181.598187,6.47249435 181.160363,5.82519386 C180.722539,5.17814863 180.138342,4.67455089 179.481606,4.2431874 C178.751813,3.88354766 177.948705,3.66786591 176.926943,3.66786591 C175.904922,3.66786591 175.029016,3.88354766 174.372021,4.2431874 C173.642228,4.60282714 173.131347,5.17814863 172.693264,5.82519386 C172.25544,6.47249435 171.963472,7.19177383 171.74456,8.05450081 C171.525389,8.91773829 171.452591,9.70848628 171.452591,10.6437027 C171.452591,11.434706 171.525648,12.2976882 171.74456,13.0889467 M167.656995,6.4007706 C168.094819,5.10616963 168.751813,3.95552665 169.62772,3.02056543 C170.503627,2.0856042 171.525389,1.29460097 172.766321,0.791258478 C174.007254,0.215936991 175.394301,0 177,0 C178.605959,0 179.992746,0.287660743 181.233679,0.791258478 C182.474611,1.36657996 183.496373,2.0856042 184.37228,3.02056543 C185.248446,3.95552665 185.905181,5.10616963 186.343005,6.4007706 C186.781088,7.69511632 187,9.06169628 187,10.571979 C187,12.0102827 186.781088,13.3766074 186.343005,14.6712084 C185.905181,15.9658094 185.248187,17.0444733 184.37228,17.9794346 C183.496373,18.9143958 182.474611,19.63342 181.233679,20.2087415 C179.992746,20.7123393 178.605699,21 177,21 C175.467098,21 174.007254,20.7123393 172.766321,20.2087415 C171.525389,19.705399 170.503627,18.9143958 169.62772,17.9794346 C168.751554,17.0444733 168.094819,15.9658094 167.656995,14.6712084 C167.218912,13.3768627 167,12.0102827 167,10.571979 C167,9.13342004 167.218912,7.69511632 167.656995,6.4007706" id="Shape" fill="#342E1E" fill-rule="nonzero"></path>
                    <rect id="Rectangle" x="0" y="0" width="207" height="46"></rect>
                    <polygon id="Path" fill="#342E1E" fill-rule="nonzero" points="202.576202 0 202.576202 14.1001749 202.500135 14.1001749 193.65254 0 189 0 189 21 193.347189 21 193.347189 6.97515591 193.423527 6.97515591 202.271122 21 207 21 207 0"></polygon>
                    <polygon id="Path" fill="#342E1E" fill-rule="nonzero" points="0 25 0 46 4.42836448 46 4.42836448 37.2999544 12.7144358 37.2999544 12.7144358 33.7000456 4.42836448 33.7000456 4.42836448 28.9001673 14 28.9001673 14 25"></polygon>
                    <path d="M31.7058821,43.9512892 C30.1127542,45.2681877 27.9123742,46 25.0290712,46 C22.1457683,46 19.9453883,45.3414209 18.3519911,44.0245224 C16.7585939,42.7076238 16,40.5856798 16,37.8051567 L16,25.0002597 L20.6285805,25.0002597 L20.6285805,37.7316639 C20.6285805,38.3172695 20.7042514,38.8293823 20.7801916,39.3414951 C20.8558625,39.8536079 21.083683,40.3657206 21.3871744,40.7318865 C21.6906658,41.1707661 22.1457683,41.4634391 22.6770802,41.756112 C23.2081228,42.048785 23.966986,42.1220182 24.9531311,42.1220182 C26.6224684,42.1220182 27.7604939,41.756112 28.367746,41.0242998 C28.9747288,40.2927472 29.3538911,39.1950288 29.3538911,37.6584307 L29.3538911,25 L33.9824716,25 L33.9824716,37.7314042 C34.1338134,40.512187 33.2992793,42.5608978 31.7058821,43.9512892" id="Path" fill="#342E1E" fill-rule="nonzero"></path>
                    <path d="M46.5646634,34.5254905 C47.61888,34.5254905 48.4474986,34.3005628 48.9748741,33.8504411 C49.5019824,33.4005856 49.8034927,32.6504715 49.8034927,31.5255666 C49.8034927,30.4757263 49.5019824,29.8006769 48.9748741,29.2757567 C48.4474986,28.8259012 47.6191473,28.6007073 46.5646634,28.6007073 L41.5186439,28.6007073 L41.5186439,34.5257567 L46.5646634,34.5257567 L46.5646634,34.5254905 Z M48.2219005,25.0005324 C49.2007395,25.0005324 50.029358,25.1503955 50.7823317,25.4503879 C51.5353054,25.7503803 52.2134361,26.2002358 52.7405444,26.7254221 C53.2676527,27.2506084 53.7196507,27.8505932 53.9455161,28.6004411 C54.246759,29.2754905 54.3972468,30.0256046 54.3972468,30.8505172 C54.3972468,32.0504867 54.1713815,33.1753917 53.6442732,34.0753689 C53.1171649,34.975346 52.2888136,35.6503955 51.0835746,36.100251 L51.0835746,36.1750494 C51.6860605,36.3251787 52.1380585,36.5501065 52.514679,36.9251635 C52.8912995,37.2251559 53.1925424,37.5999468 53.4184078,38.0500684 C53.6445405,38.5001901 53.7950283,38.9503118 53.9457834,39.475232 C54.021161,40.0004183 54.0962712,40.5253384 54.1719161,41.0502586 C54.1719161,41.350251 54.2470263,41.8001065 54.2470263,42.2504943 C54.2470263,42.7003498 54.3224039,43.1504715 54.3224039,43.600327 C54.3975141,44.0501825 54.4728917,44.5003042 54.5482693,44.9501597 C54.6236468,45.4000152 54.8495122,45.7000076 55,46 L50.4059785,46 C50.1798459,45.3252168 50.029358,44.5751027 49.9542478,43.6000608 C49.8788702,42.7000837 49.80376,41.7998403 49.6527376,40.9751939 C49.5022497,39.8500228 49.1256293,39.1001749 48.6738985,38.5749886 C48.1465229,38.0498023 47.3181717,37.8251407 46.1885775,37.8251407 L41.5942888,37.8251407 L41.5942888,46 L37,46 L37,25 L48.2219005,25 L48.2219005,25.0005324 Z" id="Shape" fill="#342E1E" fill-rule="nonzero"></path>
                    <rect id="Rectangle" x="0" y="0" width="207" height="46"></rect>
                    <polygon id="Path" fill="#342E1E" fill-rule="nonzero" points="74 25 74 28.9001673 80.2355904 28.9001673 80.2355904 46 84.7641461 46 84.7641461 28.9001673 91 28.9001673 91 25"></polygon>
                    <polygon id="Path" fill="#342E1E" fill-rule="nonzero" points="93 25 93 46 108 46 108 42.1000989 97.3160283 42.1000989 97.3160283 36.9251635 106.93876 36.9251635 106.93876 33.4000532 97.3160283 33.4000532 97.3160283 28.9001673 107.787802 28.9001673 107.787802 25"></polygon>
                    <polygon id="Path" fill="#342E1E" fill-rule="nonzero" points="123.652335 25 123.652335 39.1001749 123.576269 39.1001749 114.65247 25 110 25 110 46 114.423731 46 114.423731 31.9748897 114.500068 31.9748897 123.347259 46 128 46 128 25"></polygon>
                    <path d="M140.846327,42.338116 C141.307711,42.338116 141.769368,42.2633188 142.153764,42.1887867 C142.538434,42.1139894 142.923103,41.9643949 143.230783,41.7402683 C143.538464,41.5161417 143.769156,41.2920151 143.999848,40.9182939 C144.153552,40.5445727 144.307529,40.0960543 144.307529,39.5730038 C144.307529,38.5269028 143.999848,37.7046631 143.384487,37.2564099 C142.769126,36.8081567 141.922799,36.5840301 140.922769,36.5840301 L135.768913,36.5840301 L135.768913,42.3383813 L140.846327,42.3383813 L140.846327,42.338116 Z M140.538646,33.4449314 C141.384972,33.4449314 142.077322,33.2205396 142.615422,32.8470836 C143.154068,32.4733625 143.461748,31.8007174 143.461748,30.978743 C143.461748,30.4554273 143.385033,30.0817061 143.154068,29.7827822 C143.000364,29.4838583 142.769672,29.2597317 142.461991,29.0356051 C142.154311,28.8862758 141.846357,28.7366812 141.461961,28.6621492 C141.077292,28.5873519 140.692896,28.5873519 140.230965,28.5873519 L135.769459,28.5873519 L135.769459,33.5197287 L140.538646,33.5197287 L140.538646,33.4449314 L140.538646,33.4449314 Z M141.154007,25 C142.153764,25 143.077079,25.0747973 143.923133,25.2989239 C144.769459,25.4482532 145.461809,25.7471771 146.07717,26.1956956 C146.692532,26.5694167 147.153916,27.1672645 147.461597,27.7651123 C147.769277,28.4377573 147.922981,29.259997 147.922981,30.2313007 C147.922981,31.2776669 147.692289,32.1744386 147.153916,32.8470836 C146.692532,33.5194635 145.923194,34.1173112 145.000152,34.5658297 C146.307863,34.9392856 147.30762,35.6119307 147.99997,36.5087024 C148.615331,37.405474 149,38.5263723 149,39.8716624 C149,40.9180286 148.769035,41.8148003 148.384639,42.6370399 C147.99997,43.384217 147.384608,44.0571273 146.692259,44.5053806 C145.999909,45.0284311 145.153855,45.3273549 144.230814,45.6262788 C143.307499,45.8506707 142.384457,46 141.384426,46 L131,46 L131,25.0747973 L141.153734,25.0747973 L141.153734,25 L141.154007,25 Z" id="Shape" fill="#342E1E" fill-rule="nonzero"></path>
                    <rect id="Rectangle" x="0" y="0" width="207" height="46"></rect>
                    <polygon id="Path" fill="#342E1E" fill-rule="nonzero" points="151 25 151 46 166 46 166 42.1000989 155.386845 42.1000989 155.386845 36.999962 164.939011 36.999962 164.939011 33.4000532 155.386845 33.4000532 155.386845 28.9001673 165.787802 28.9001673 165.787802 25"></polygon>
                    <path d="M177.59984,34.5254905 C178.649927,34.5254905 179.474824,34.3005628 180,33.8504411 C180.525176,33.4005856 180.825163,32.6504715 180.825163,31.5255666 C180.825163,30.4757263 180.525176,29.8006769 180,29.2757567 C179.474824,28.8259012 178.650193,28.6007073 177.59984,28.6007073 L172.57513,28.6007073 L172.57513,34.5257567 L177.59984,34.5257567 L177.59984,34.5254905 Z M179.2499,25.0005324 C180.224923,25.0005324 181.04982,25.1503955 181.799654,25.4503879 C182.549754,25.7503803 183.22479,26.2002358 183.749701,26.7254221 C184.274611,27.2506084 184.724724,27.8505932 184.949647,28.6004411 C185.249634,29.2754905 185.399494,30.0256046 185.399494,30.8505172 C185.399494,32.0504867 185.174571,33.1753917 184.649661,34.0753689 C184.12475,34.975346 183.299854,35.6503955 182.099907,36.100251 L182.099907,36.1750494 C182.69988,36.3251787 183.149727,36.5501065 183.524777,36.9251635 C183.899827,37.2251559 184.199814,37.5999468 184.425003,38.0500684 C184.649927,38.5001901 184.799787,38.9503118 184.949913,39.475232 C185.024977,40.0004183 185.099774,40.5253384 185.175103,41.0502586 C185.175103,41.350251 185.175103,41.8001065 185.2499,42.2504943 C185.2499,42.7003498 185.324963,43.1504715 185.324963,43.600327 C185.39976,44.0501825 185.474824,44.5003042 185.550153,44.9501597 C185.62495,45.4000152 185.85014,45.7000076 186,46 L181.42487,46 C181.199681,45.3252168 181.04982,44.5751027 180.975023,43.6000608 C180.89996,42.7000837 180.825163,41.7998403 180.675037,40.9751939 C180.525176,39.8500228 180.14986,39.1001749 179.700013,38.5749886 C179.174837,38.0498023 178.350206,37.8251407 177.225057,37.8251407 L172.649927,37.8251407 L172.649927,46 L168,46 L168,25 L179.2499,25 L179.2499,25.0005324 Z" id="Shape" fill="#342E1E" fill-rule="nonzero"></path>
                    <path d="M206.558018,30.9689692 C206.410865,30.2496809 206.116297,29.6023726 205.82173,29.0272994 C205.30604,28.1640514 204.643459,27.3732938 203.833464,26.7977101 C203.023207,26.2223816 202.139766,25.719033 201.182095,25.4313687 C200.224946,25.1437045 199.193829,25 198.089004,25 C196.542459,25 195.069622,25.2876642 193.817644,25.7910128 C192.565667,26.3663413 191.534811,27.0856296 190.651108,28.0203469 C189.767405,28.9553195 189.104563,30.1059764 188.662842,31.4005931 C188.221122,32.6949546 188,34.0615512 188,35.5718522 C188,37.0101734 188.221122,38.3765148 188.662842,39.6711315 C189.104563,40.9657482 189.767667,42.0446805 190.651108,42.9793979 C191.534811,43.9143704 192.565928,44.6334034 193.817644,45.2087319 C195.069622,45.7123358 196.469014,46 198.089004,46 C199.120122,46 200.07727,45.7840604 201.034941,45.4246715 C201.992351,44.9933028 202.876054,44.3457392 203.686311,43.2670621 L204.128032,45.5686313 L207,45.5686313 L207,34.7808394 L198.383311,34.7808394 L198.383311,38.0171259 L202.9495,38.0171259 C202.802347,39.4557024 202.360103,40.5343794 201.550108,41.2536677 C200.739851,41.9727006 199.561842,42.3326 198.088743,42.3326 C197.057887,42.3326 196.174185,42.1166604 195.511342,41.7570163 C194.775054,41.3976274 194.259365,40.8940236 193.817644,40.2469705 C193.375923,39.5996621 193.081356,38.8803739 192.860496,38.089361 C192.639374,37.2980929 192.565928,36.4353555 192.565928,35.6440874 C192.565928,34.7810946 192.639374,33.9181019 192.860496,33.0551092 C193.081356,32.1918612 193.375923,31.4728283 193.817644,30.8257752 C194.259365,30.1784668 194.848761,29.674863 195.511342,29.2434942 C196.24763,28.8841054 197.057887,28.6681657 198.088743,28.6681657 C199.193567,28.6681657 200.150977,28.95583 200.887266,29.5311585 C201.623554,30.0347623 202.065536,30.8257752 202.360103,31.9044523 L206.558018,30.9689692 Z" id="Path" fill="#342E1E" fill-rule="nonzero"></path>
                    <path d="M73.3429621,36.8259663 C72.8034823,36.1093722 72.1868558,35.5359951 71.4930826,35.105835 C70.7993094,34.675675 70.1058098,34.3892409 69.3346163,34.1740337 C68.6411167,33.9588265 68.0244902,33.8156094 67.6390303,33.744128 C66.3286306,33.4574395 65.1722507,33.1707509 64.4016044,32.9555437 C63.5535378,32.7405909 62.9369113,32.5256381 62.4745782,32.3104309 C62.0122451,32.0954781 61.7039319,31.8805252 61.5496385,31.6655724 C61.3956186,31.4503652 61.3181983,31.0921953 61.3181983,30.733771 C61.3181983,30.3038654 61.395345,29.9451867 61.6265116,29.6584982 C61.8579517,29.3718096 62.0891182,29.1568568 62.3974315,28.941904 C62.7057447,28.7269512 63.0909311,28.6552154 63.3992444,28.5834797 C63.7847043,28.5119984 64.1701643,28.4402626 64.5556242,28.4402626 C65.1722507,28.4402626 65.7120041,28.5119984 66.1743372,28.5834797 C66.6366703,28.6552154 67.0992769,28.8704226 67.4847369,29.0853755 C67.8701968,29.3005827 68.1785101,29.5872712 68.4096766,30.0171768 C68.6411167,30.3753467 68.7951366,30.8772425 68.7951366,31.5223553 L73.3426886,30.5905539 C73.2658154,29.8019696 73.0343753,29.1571112 72.7260621,28.5119984 C72.263729,27.723414 71.6471025,27.0068199 70.7990359,26.5049241 C70.0283895,26.0032827 69.1034498,25.5733771 68.0242167,25.3581699 C67.0221302,25.1432171 65.9431706,25 64.7867908,25 C63.7847043,25 62.8597646,25.1432171 61.8576781,25.3581699 C60.8555917,25.5733771 60.0077986,26.0032827 59.2368787,26.5049241 C58.4662324,27.0068199 57.8496059,27.6519327 57.3869993,28.3685269 C56.9246662,29.1571112 56.6932261,30.0169225 56.6932261,31.0204596 C56.6932261,31.952261 56.8472459,32.7408453 57.2329794,33.3857037 C57.6181658,34.0308166 58.081046,34.6041937 58.6976725,35.0340993 C59.314299,35.4640049 60.0080722,35.8226836 60.7787186,36.1093722 C61.5493649,36.3960607 62.3202848,36.6112679 63.0909311,36.8259663 C63.8615775,37.0411735 64.6327709,37.1843906 65.4034173,37.3993435 C66.1740636,37.5425605 66.8681104,37.7577677 67.4844633,37.9727206 C68.1010898,38.1879278 68.5634229,38.4746163 68.9491564,38.8330406 C69.3343428,39.1912105 69.4886362,39.6213705 69.4886362,40.1230119 C69.4886362,40.6246533 69.3346163,41.0548133 69.1034498,41.3415018 C68.7951366,41.6996717 68.4868233,41.9148789 68.0244902,42.1300861 C67.6390303,42.3450389 67.1764236,42.4167747 66.6369438,42.488256 C66.1746107,42.5599918 65.7120041,42.5599918 65.249671,42.5599918 C64.6330445,42.5599918 64.0161444,42.488256 63.4769382,42.3447846 C62.8603117,42.2015675 62.3979786,41.9866147 61.9350984,41.6996717 C61.4727653,41.4129832 61.1644521,41.0548133 60.9332855,40.5529175 C60.7018454,40.0510218 60.5478256,39.4776447 60.5478256,38.8327862 L56,39.9078047 C56.0771467,40.696389 56.3085868,41.4129832 56.6937732,42.058096 C57.2335266,42.9898974 57.8501531,43.7064916 58.6979461,44.2798687 C59.5457391,44.8532458 60.5478256,45.2831514 61.6267852,45.56984 C62.7060183,45.8567829 63.8621246,46 65.0956512,46 C66.5603443,46 67.8704704,45.8567829 68.9497035,45.4981042 C70.0286631,45.2114157 71.0307496,44.7095199 71.7245228,44.1361428 C72.4954427,43.5627657 73.0349225,42.9176529 73.4203824,42.129323 C73.8055688,41.3407387 73.9598622,40.4809274 73.9598622,39.5488716 C74.1141556,38.4743619 73.8055688,37.5425605 73.3429621,36.8259663" id="Path" fill="#342E1E" fill-rule="nonzero"></path>
                    <rect id="Rectangle" x="0" y="0" width="207" height="46"></rect>
                </g>
            </g>
        </g>
    </g>
</svg>