<?xml version="1.0" encoding="UTF-8"?>
<svg width="240px" height="31px" viewBox="0 0 240 31" version="1.1" xmlns="http://www.w3.org/2000/svg" xmlns:xlink="http://www.w3.org/1999/xlink">
    <!-- Generator: Sketch 53.2 (72643) - https://sketchapp.com -->
    <title>Foundwork</title>
    <desc>Created with Sketch.</desc>
    <g id="Page-1" stroke="none" stroke-width="1" fill="none" fill-rule="evenodd">
        <g id="Desktop-Active" transform="translate(-94.000000, -1277.000000)" fill="#342E1E" fill-rule="nonzero">
            <g id="Logos" transform="translate(94.000000, 1127.000000)">
                <path d="M19.6558789,156.286713 L6.81579692,156.286713 L6.81579692,162.486713 L17.9409364,162.486713 L17.9409364,168.6 L6.81579692,168.6 L6.81579692,180.34965 L0,180.34965 L0,150 L19.6558789,150 L19.6558789,156.286713 Z M34.754568,159.668531 C41.3505005,159.668531 46.1875177,163.917483 46.1875177,170.334266 C46.1875177,176.751049 41.3505005,181 34.754568,181 C28.2026084,181 23.3655912,176.751049 23.3655912,170.334266 C23.3655912,163.917483 28.2026084,159.668531 34.754568,159.668531 Z M34.754568,165.651748 C32.116195,165.651748 30.0054966,167.472727 30.0054966,170.334266 C30.0054966,173.195804 32.116195,175.016783 34.754568,175.016783 C37.4369139,175.016783 39.5036394,173.195804 39.5036394,170.334266 C39.5036394,167.472727 37.4369139,165.651748 34.754568,165.651748 Z M59.0875627,181 C54.7782201,181 51.3923081,178.398601 51.3923081,172.675524 L51.3923081,160.318881 L58.2520779,160.318881 L58.2520779,171.244755 C58.2520779,174.14965 59.6152373,175.276923 61.594017,175.276923 C63.9245798,175.276923 65.4196579,173.672727 65.4196579,169.987413 L65.4196579,160.318881 L72.0595633,160.318881 L72.0595633,180.34965 L65.5515765,180.34965 L65.5515765,177.227972 L65.4636308,177.227972 C64.0125256,179.525874 62.0777187,181 59.0875627,181 Z M91.819378,159.668531 C96.3046122,159.668531 99.4706598,162.226573 99.4706598,167.94965 L99.4706598,180.34965 L92.8747272,180.34965 L92.8747272,169.770629 C92.8747272,166.779021 91.5995136,165.434965 89.1370322,165.434965 C86.8944151,165.434965 85.2234455,166.735664 85.2234455,170.290909 L85.2234455,180.34965 L78.5835402,180.34965 L78.5835402,160.318881 L85.0915269,160.318881 L85.0915269,163.353846 L85.1794727,163.353846 C86.5866049,161.012587 88.9611406,159.668531 91.819378,159.668531 Z M114.349484,181 C109.072738,181 104.719423,177.358042 104.719423,170.334266 C104.719423,163.31049 109.072738,159.668531 114.349484,159.668531 C117.647451,159.668531 119.714176,161.012587 120.98939,163.05035 L121.077336,163.05035 L121.077336,150 L127.717241,150 L127.717241,180.34965 L121.077336,180.34965 L121.077336,177.618182 L120.98939,177.618182 C119.714176,179.655944 117.647451,181 114.349484,181 Z M116.196346,175.016783 C118.878691,175.016783 120.901444,173.195804 120.901444,170.334266 C120.901444,167.472727 118.878691,165.651748 116.196346,165.651748 C113.557973,165.651748 111.53522,167.472727 111.53522,170.334266 C111.53522,173.195804 113.557973,175.016783 116.196346,175.016783 Z M161.020704,160.318881 L167.572664,160.318881 L160.185219,180.34965 L154.512717,180.34965 L150.027483,168.643357 L145.586222,180.34965 L139.91372,180.34965 L132.482303,160.318881 L139.078235,160.318881 L142.859903,172.068531 L146.993354,160.318881 L153.105585,160.318881 L157.239036,172.068531 L161.020704,160.318881 Z M182.583407,159.668531 C189.179339,159.668531 194.016357,163.917483 194.016357,170.334266 C194.016357,176.751049 189.179339,181 182.583407,181 C176.031447,181 171.19443,176.751049 171.19443,170.334266 C171.19443,163.917483 176.031447,159.668531 182.583407,159.668531 Z M182.583407,165.651748 C179.945034,165.651748 177.834335,167.472727 177.834335,170.334266 C177.834335,173.195804 179.945034,175.016783 182.583407,175.016783 C185.265753,175.016783 187.332478,173.195804 187.332478,170.334266 C187.332478,167.472727 185.265753,165.651748 182.583407,165.651748 Z M212.896714,159.711888 L212.896714,166.258741 L212.325066,166.258741 C207.883805,166.258741 206.080917,167.862937 206.080917,172.979021 L206.080917,180.34965 L199.441011,180.34965 L199.441011,160.318881 L205.948998,160.318881 L205.948998,164.394406 L206.036944,164.394406 C207.224212,161.099301 209.554775,159.711888 212.764795,159.711888 L212.896714,159.711888 Z M240,180.34965 L231.425288,180.34965 L224.521545,171.158042 L224.521545,180.34965 L217.88164,180.34965 L217.88164,150 L224.521545,150 L224.521545,168.20979 L230.457884,160.318881 L238.680813,160.318881 L230.633776,169.423776 L240,180.34965 Z" id="Foundwork"></path>
            </g>
        </g>
    </g>
</svg>