<?xml version="1.0" encoding="UTF-8"?>
<svg width="259px" height="31px" viewBox="0 0 259 31" version="1.1" xmlns="http://www.w3.org/2000/svg" xmlns:xlink="http://www.w3.org/1999/xlink">
    <!-- Generator: Sketch 53.2 (72643) - https://sketchapp.com -->
    <title>Herman_Miller Logo</title>
    <desc>Created with Sketch.</desc>
    <g id="Page-1" stroke="none" stroke-width="1" fill="none" fill-rule="evenodd">
        <g id="Desktop-Active" transform="translate(-225.000000, -1135.000000)" fill="#342E1E">
            <g id="Logos" transform="translate(94.000000, 1127.000000)">
                <g id="Herman_Miller-Logo" transform="translate(131.000000, 8.000000)">
                    <path d="M71.6040816,17.8289017 L63.8380952,17.8289017 C63.8380952,14.2384261 65.3034014,12.2917325 67.7945578,12.2917325 C70.1387755,12.2917325 71.6040816,14.5371692 71.6040816,17.8289017 L71.6040816,17.8289017 L71.6040816,17.8289017 Z M76,21.1206341 C76,20.821891 76,20.5231479 76,20.2230152 C76,15.5848544 75.1210884,13.0406745 73.5088435,11.2454367 C72.1904762,9.74894208 70.1387755,9 67.7931973,9 C65.1564626,9 63.1047619,9.8976189 61.492517,11.842923 C59.8802721,13.7882271 59,16.3337965 59,19.9242721 C59,26.8092591 62.5170068,31 68.3795918,31 C71.1632653,31 73.6544218,29.9523148 75.7061224,28.1556875 L74.0938776,25.4628308 C72.4816327,26.8092591 70.8693878,27.5582012 68.9646259,27.5582012 C67.0598639,27.5582012 65.5945578,26.8092591 64.5687075,25.311375 C63.9823129,24.4151456 63.6897959,22.9172614 63.6897959,21.4221563 L63.6897959,21.1206341 L76,21.1206341 L76,21.1206341 Z" id="Shape"></path>
                    <path d="M134.948506,20.3701396 L134.798237,25.2436441 C133.891004,26.7187188 132.377077,27.605683 130.714286,27.605683 C128.748147,27.605683 127.689241,26.425349 127.689241,24.3580508 C127.689241,23.1777168 127.991184,22.2907527 128.748147,21.5518445 C129.65538,20.6662512 131.167902,20.3715105 133.891004,20.3715105 C134.192947,20.3701396 134.496294,20.3701396 134.948506,20.3701396 L134.948506,20.3701396 L134.948506,20.3701396 Z M141,28.1965354 C139.487478,27.3109422 139.185535,26.4239781 139.185535,24.0591974 C139.185535,23.7644566 139.185535,23.6177717 139.185535,23.4697159 L139.185535,17.2691924 L139.185535,15.9380608 C139.185535,14.0201894 139.185535,13.2812812 138.882188,12.3956879 C138.126629,10.1817049 135.705469,9 132.530155,9 C130.714286,9 128.748147,9.29474078 126.933682,10.1817049 C125.723102,10.7725573 124.664196,11.0672981 123.60529,11.8062064 L125.571429,14.9071535 C126.478661,14.3163011 127.083951,14.0215603 128.142857,13.4307079 C129.50511,12.8398554 130.865959,12.5451147 131.923461,12.5451147 C133.134041,12.5451147 133.8896,12.8398554 134.34462,13.4307079 C134.798237,14.0215603 134.94991,14.7590977 134.94991,16.2369143 L134.94991,17.4172483 C134.34462,17.4172483 134.042678,17.4172483 133.589061,17.4172483 C126.630335,17.4172483 123,19.7792871 123,24.6514207 C123,26.1264955 123.453616,28.0471087 124.664196,29.0793868 C125.874776,30.111665 127.387298,30.7052592 129.958727,30.7052592 C131.773192,30.7052592 133.135445,30.2638335 134.496294,29.5249252 C134.948506,29.0807577 135.101584,28.7860169 135.705469,28.1965354 C136.159086,29.5249252 137.369665,30.5585743 138.730514,31 L141,28.1965354 L141,28.1965354 Z" id="Shape"></path>
                    <path d="M239.456779,17.8289017 L231.835761,17.8289017 C231.835761,14.2384261 233.301185,12.2917325 235.64559,12.2917325 C238.138306,12.2917325 239.456779,14.5371692 239.456779,17.8289017 L239.456779,17.8289017 L239.456779,17.8289017 Z M244,21.1206341 C244,20.821891 244,20.5231479 244,20.2230152 C244,15.5848544 243.121018,13.0406745 241.508644,11.2454367 C240.043221,9.74894208 237.991356,9 235.64559,9 C233.154234,9 231.102369,9.8976189 229.491356,11.842923 C227.878982,13.7882271 227,16.3337965 227,19.9242721 C227,26.8092591 230.517288,31 236.380343,31 C239.017288,31 241.510005,29.9523148 243.70746,28.1556875 L241.949496,25.4628308 C240.484072,26.8092591 238.724748,27.5582012 236.966784,27.5582012 C234.914919,27.5582012 233.449496,26.8092591 232.570514,25.311375 C231.984072,24.4151456 231.691532,22.7685846 231.691532,21.4221563 L231.691532,21.1206341 L244,21.1206341 L244,21.1206341 Z" id="Shape"></path>
                    <polygon id="Path" points="56 31 56 2 51.5470042 2 51.5470042 13.8441571 41.3055273 13.8441571 41.3055273 2 37 2 37 31 41.3055273 31 41.3055273 17.4867781 51.5470042 17.4867781 51.5470042 31"></polygon>
                    <path d="M91,10.2931247 C90.5445358,10.147244 90.0890717,10 89.3290247,10 C87.0502938,10 85.3807286,11.1752256 84.012926,13.2311887 L84.012926,12.79082 C84.012926,11.6169577 83.7097532,10.8821009 83.252879,10.0013634 L79,11.0293449 C79.6077556,12.3504512 79.7586369,13.8188015 79.7586369,16.3164968 L79.7586369,31 L84.3146886,31 L84.3146886,17.3444783 C84.4655699,16.1706161 84.7701528,15.728884 85.5287897,14.9940271 C86.2874266,14.2591703 87.3520564,14.1132896 88.2629847,14.1132896 C88.8707403,14.1132896 89.0230317,14.2591703 89.6293772,14.4064143 L91,10.2931247 L91,10.2931247 Z" id="Path"></path>
                    <path d="M119,31 L119,15.8751461 C119,13.6717959 118.552655,12.3506038 117.35881,11.3225555 C116.464119,10.4417608 115.120698,10 113.629084,10 C111.390972,10 108.856476,11.1753019 107.215286,13.0841449 C106.320595,11.1753019 104.381636,10 102.293101,10 C100.354142,10 98.2656066,11.1753019 96.7739933,12.6423841 C96.6244165,11.6156993 96.3266479,10.7335411 96.0274942,10.1458901 L92,11.1739384 C92.5969223,12.4951305 92.7451141,13.2300351 92.7451141,16.1682898 L92.7451141,30.9986365 L96.9221852,30.9986365 L96.9221852,15.8737826 C98.7115671,14.405337 100.054988,13.6704324 101.397025,13.6704324 C103.186407,13.6704324 103.635137,14.6984807 103.635137,17.0463576 L103.635137,30.9972731 L107.961785,30.9972731 L107.961785,16.1669264 C109.602975,14.4039735 111.244165,13.669069 112.436625,13.669069 C114.077815,13.669069 114.673352,14.5498637 114.673352,16.6059603 L114.673352,30.9972731 L119,30.9972731 L119,31 Z" id="Path"></path>
                    <path d="M161,31 L161,15.7278925 C161,12.0560966 158.703279,10.1472536 155.334281,10.1472536 C153.036139,10.1472536 151.198762,10.8821582 148.900619,12.7896377 C148.900619,11.908843 148.594864,11.0280483 148.135519,10 L144,11.1753019 C144.612933,12.496494 144.612933,13.6717959 144.612933,15.8751461 L144.612933,31 L149.05563,31 L149.05563,16.1696533 C150.585829,14.6998442 152.578216,13.6717959 154.109838,13.6717959 C155.795048,13.6717959 156.561569,14.5525906 156.561569,17.3435917 L156.561569,31 L161,31 L161,31 Z" id="Path"></path>
                    <polygon id="Path" points="194 31 191.583801 2 185.391151 2 179.802901 23.5596928 174.063201 2 167.720503 2 165 31 169.2294 31 171.19265 6.70834143 177.688201 31 181.16175 31 187.80735 7.16366906 189.620551 31"></polygon>
                    <path d="M203.249304,30.9986143 L203.249304,9.65675089 L198.749304,10.4036676 L198.749304,31 L203.249304,31 L203.249304,30.9986143 Z M204,3.98489538 C204,2.49244769 202.649025,1 201,1 C199.5,1 198,2.49244769 198,3.98489538 C198,5.7752783 199.349582,6.96979075 201,6.96979075 C202.650418,6.96979075 204,5.7752783 204,3.98489538 L204,3.98489538 L204,3.98489538 Z" id="Shape"></path>
                    <path d="M215,30.5487105 L214.160104,27.8410315 C214.160104,27.8410315 213.880572,27.8410315 213.741456,27.8410315 C213.040676,27.8410315 212.480312,27.3883545 212.480312,25.7341275 L212.480312,6.02032442 C212.480312,3.31124829 212.480312,1.50612897 212.19948,0 L208,1.05345199 C208.279532,2.5581838 208.419948,4.06291562 208.419948,7.07237925 L208.419948,26.0331179 C208.419948,29.1934738 209.960624,30.9999903 212.341196,30.9999903 C213.459324,31.0013874 214.158804,30.8518923 215,30.5487105 L215,30.5487105 L215,30.5487105 Z" id="Path"></path>
                    <path d="M226,30.5487105 L225.058995,27.8410315 C224.431173,27.8410315 223.96067,27.8410315 223.647487,27.540644 C223.332848,27.087967 223.176985,26.1840102 223.176985,24.0771062 L223.176985,6.02032442 C223.176985,3.31124829 223.176985,1.50612897 222.706482,0 L218,1.05345199 C218.470503,2.5581838 218.470503,4.06291562 218.470503,7.07237925 L218.470503,25.2800534 C218.470503,27.5392468 218.941005,28.7435911 219.568827,29.4938613 C220.19665,30.5473133 221.608157,30.9999903 223.019665,30.9999903 C224.11799,31.0013874 225.057538,30.8518923 226,30.5487105 L226,30.5487105 L226,30.5487105 Z" id="Path"></path>
                    <path d="M259,10.2931247 C258.544482,10.147244 258.088965,10 257.328828,10 C255.05124,10 253.227759,11.1752256 251.861206,13.2311887 L251.861206,12.79082 C251.861206,11.6169577 251.556587,10.8821009 251.101069,10.0013634 L247,11.0293449 C247.609237,12.3504512 247.760136,13.8188015 247.760136,16.3164968 L247.760136,31 L252.164414,31 L252.164414,17.3444783 C252.469033,16.1706161 252.772241,15.728884 253.532377,14.9940271 C254.291104,14.2591703 255.354448,14.1132896 256.265484,14.1132896 C256.721001,14.1132896 257.02562,14.2591703 257.633447,14.4064143 L259,10.2931247 L259,10.2931247 Z" id="Path"></path>
                    <path d="M24.1764471,23.6197003 C24.1764471,23.6197003 20.6166319,22.4396746 15.5736751,22.4396746 C10.381991,22.4396746 6.82355293,23.6197003 6.82355293,23.6197003 L6.82355293,7.52968743 L7.1196304,7.52968743 C7.1196304,7.52968743 8.45542179,21.7009594 15.5736751,21.7009594 C22.5445782,21.7009594 23.8803696,7.52968743 23.8803696,7.52968743 L24.1764471,7.52968743 L24.1764471,23.6197003 L24.1764471,23.6197003 Z M31,15.5006853 C31,6.93761882 24.0290969,0 15.5736751,0 C6.97090311,0 0,6.93761882 0,15.5006853 C0,24.0610107 6.97090311,31 15.5736751,31 C24.0277198,31 31,24.0610107 31,15.5006853 L31,15.5006853 L31,15.5006853 Z" id="Shape"></path>
                </g>
            </g>
        </g>
    </g>
</svg>