<?xml version="1.0" encoding="UTF-8"?>
<svg width="170px" height="40px" viewBox="0 0 170 40" version="1.1" xmlns="http://www.w3.org/2000/svg" xmlns:xlink="http://www.w3.org/1999/xlink">
    <!-- Generator: Sketch 53.2 (72643) - https://sketchapp.com -->
    <title>Klarna Logo</title>
    <desc>Created with Sketch.</desc>
    <g id="Page-1" stroke="none" stroke-width="1" fill="none" fill-rule="evenodd">
        <g id="Desktop-Active" transform="translate(-1005.000000, -1614.000000)" fill="#342E1E" fill-rule="nonzero">
            <g id="Logos" transform="translate(94.000000, 1127.000000)">
                <g id="Klarna-Logo" transform="translate(911.000000, 487.000000)">
                    <path d="M36.1790919,39.3022274 L44.4014218,39.3022274 L44.4014218,0.000118891221 L36.1790919,0.000118891221 L36.1790919,39.3022274 L36.1790919,39.3022274 Z M88.2547039,16.6140969 L88.2547039,13.124164 L88.1176981,13.124164 L88.1176981,13.124164 L80.9229114,13.124164 L80.9229114,13.124164 L80.5120108,13.124164 L80.5120108,39.3717788 L88.2547039,39.3717788 L88.2547039,25.6195124 C88.2547039,21.6403422 92.6402888,19.8953757 95.7237355,20.7332022 L95.792005,20.7332022 L95.792005,13.124164 C92.6402888,13.0538993 89.7623508,14.4503956 88.2547039,16.6140969 L88.2547039,16.6140969 Z M61.8058222,33.2285505 C57.7629851,33.2285505 54.5425327,30.0874445 54.5425327,26.1779445 C54.5425327,22.2690389 57.8313713,19.1273384 61.8058222,19.1273384 C65.8485427,19.1273384 69.0688784,22.2690389 69.0688784,26.1779445 C69.0688784,30.0874445 65.7798064,33.2285505 61.8058222,33.2285505 L61.8058222,33.2285505 Z M69.0003755,14.8692494 C66.8076997,13.2637423 64.0668842,12.3561268 61.1204433,12.3561268 C53.5833756,12.3561268 47.5534881,18.5692631 47.5534881,26.1783012 C47.5534881,33.7871015 53.6517618,40 61.1204433,40 C64.0668842,40 66.7390801,39.0227142 69.0003755,37.4868774 L69.0003755,39.3022274 L75.7155253,39.3022274 L75.7155253,13.0543749 L69.0003755,13.0543749 L69.0003755,14.8692494 Z M115.114953,12.3561268 C112.031273,12.3561268 109.084832,13.3332937 107.166401,15.9863513 L107.166401,13.0538993 L107.029512,13.0538993 L107.029512,13.0538993 L99.8347254,13.0538993 L99.8347254,13.0538993 L99.4237081,13.0538993 L99.4237081,39.3021085 L107.166518,39.3021085 L107.166518,24.9212643 C107.166518,20.9424507 109.770444,18.9877601 112.991013,18.9877601 C116.348472,18.9877601 118.335522,21.0823857 118.335522,24.851594 L118.335522,39.231606 L126.078682,39.231606 L126.078682,22.5479577 C126.078448,16.5446645 121.281496,12.3561268 115.114953,12.3561268 L115.114953,12.3561268 Z M165.135128,30.0175365 C162.462699,30.0175365 160.27014,32.2512647 160.27014,34.9737548 C160.27014,37.6962448 162.462699,39.930092 165.135128,39.930092 C167.807208,39.930092 170,37.6962448 170,34.9737548 C169.999883,32.1813567 167.807208,30.0175365 165.135128,30.0175365 L165.135128,30.0175365 Z M143.002862,33.2285505 C138.960025,33.2285505 135.739689,30.0874445 135.739689,26.1779445 C135.739689,22.2690389 139.028411,19.1273384 143.002862,19.1273384 C147.045582,19.1273384 150.266151,22.2690389 150.266151,26.1779445 C150.334654,30.0874445 147.045232,33.2285505 143.002862,33.2285505 L143.002862,33.2285505 Z M150.266268,14.8692494 C148.073476,13.2637423 145.332777,12.3561268 142.386569,12.3561268 C134.848685,12.3561268 128.819031,18.5692631 128.819031,26.1783012 C128.819031,33.7871015 134.917304,40 142.386569,40 C145.33266,40 148.004856,39.0227142 150.266268,37.4868774 L150.266268,39.3022274 L156.980951,39.3022274 L156.980951,13.0543749 L150.266268,13.0543749 L150.266268,14.8692494 Z M161.846173,13.54278 L162.188804,13.54278 C162.394079,13.54278 162.531318,13.682715 162.531318,13.8221744 C162.531318,14.0316607 162.462699,14.1016877 162.188804,14.1016877 L161.846173,14.1016877 L161.846173,13.54278 Z M161.846173,14.4503956 L162.188804,14.4503956 L162.531318,15.2180762 L162.874183,15.2180762 L162.531318,14.4503956 C162.736827,14.3804876 162.874183,14.1710012 162.874183,13.8920824 C162.874183,13.54278 162.599821,13.2633857 162.188804,13.2633857 L161.503542,13.2633857 L161.503542,15.2180762 L161.84629,15.2180762 L161.84629,14.4503956 L161.846173,14.4503956 Z M0,39.3022274 L8.56519444,39.3022274 L8.56519444,0.000118891221 L0,0.000118891221 L0,39.3022274 Z M22.2693888,0 C22.1322664,8.86571831 17.0617693,16.5445456 9.79847974,20.3142295 L22.6117866,39.3021085 L33.0270257,39.3021085 L21.3783846,22.0591959 C27.1341439,16.2652701 30.4233326,8.44698343 30.5602216,0 L22.2693888,0 Z M163.627365,14.2410282 C163.627365,15.0787357 162.942452,15.7769838 162.120184,15.7769838 C161.29815,15.7769838 160.612538,15.0787357 160.612538,14.2410282 C160.612538,13.4033206 161.29815,12.7055481 162.120184,12.7055481 C162.942452,12.7055481 163.627365,13.4033206 163.627365,14.2410282 Z M163.970229,14.2409093 C163.970229,13.1937154 163.147961,12.3560079 162.120184,12.3560079 C161.092291,12.3560079 160.270023,13.1937154 160.270023,14.2409093 C160.270023,15.2881032 161.092291,16.1258107 162.120184,16.1258107 C163.147961,16.1258107 163.970229,15.2881032 163.970229,14.2409093 Z" id="Page-1"></path>
                </g>
            </g>
        </g>
    </g>
</svg>