<?xml version="1.0" encoding="UTF-8"?>
<svg width="178px" height="74px" viewBox="0 0 178 74" version="1.1" xmlns="http://www.w3.org/2000/svg" xmlns:xlink="http://www.w3.org/1999/xlink">
    <!-- Generator: Sketch 53.2 (72643) - https://sketchapp.com -->
    <title>Marley Spoon Logo</title>
    <desc>Created with Sketch.</desc>
    <g id="Page-1" stroke="none" stroke-width="1" fill="none" fill-rule="evenodd">
        <g id="Desktop-Active" transform="translate(-123.000000, -1439.000000)" fill="#342E1E" fill-rule="nonzero">
            <g id="Logos" transform="translate(94.000000, 1127.000000)">
                <g id="Marley-Spoon-Logo" transform="translate(29.000000, 312.000000)">
                    <polygon id="Path" points="169 73 169 41 163.958429 41 163.958429 60.3344149 146.672101 41 141 41 141 72.5971607 146.086889 72.5971607 146.086889 49.3246177 167.425479 73"></polygon>
                    <path d="M35.2488367,30 L30.5685491,0.000157763544 L27.1111663,0.000157763544 L17.7509042,21.5014356 L8.13767044,0.000157763544 L4.72239736,0.000157763544 L0,30 L5.10185475,30 L7.673837,12.0255261 L15.6848651,30 L18.8892763,30 L26.7317089,11.8556148 L29.2193151,30 L35.2488367,30 L35.2488367,30 Z M68.9374211,30 L55.2763287,0.000157763544 L53.2102897,0.000157763544 L39.0434107,30 L44.313861,30 L47.2653006,23.3710914 L59.5770024,23.3710914 L62.528442,30 L68.9374211,30 L68.9374211,30 Z M57.7639349,19.4194302 L49.0361018,19.4194302 L53.3367755,9.68857476 L57.7639349,19.4194302 L57.7639349,19.4194302 Z M73.3220011,0 L73.3220011,30 L79.3515228,30 L79.3515228,16.7421828 C80.5320047,16.9546903 81.6282671,17.0821633 82.8510154,17.0821633 L90.4404763,30 L97.186803,30 L88.8803805,15.7648377 C92.0007287,14.3201969 94.0245015,11.6431073 94.0245015,7.98867258 C94.0245015,6.58631243 93.6450441,4.92916417 92.9280825,3.73931152 C90.9465761,0.467453381 87.6998985,0 84.2004059,0 L73.3220011,0 L73.3220011,0 Z M79.3515228,4.12204588 L81.839129,4.12204588 C85.0435402,4.12204588 87.8684941,5.22686398 87.8684941,8.9237371 C87.8684941,11.8557726 85.6338595,14.6601773 79.8995757,14.6601773 L79.3515228,14.6601773 L79.3515228,4.12204588 L79.3515228,4.12204588 Z M120.840586,30 L120.840586,25.7932351 L107.432779,25.7932351 L107.432779,0.000157763544 L101.360834,0.000157763544 L101.360834,30 L120.840586,30 L120.840586,30 Z M145,30 L145,25.920708 L130.664212,25.920708 L130.664212,16.5298331 L141.711369,16.5298331 L141.711369,12.407945 L130.664212,12.407945 L130.664212,4.07929196 L143.271309,4.07929196 L143.271309,0 L124.634847,0 L124.634847,30 L145,30 L145,30 Z" id="Shape"></path>
                    <path d="M26.4080863,48.2508153 C25.7250245,41.7225055 20.3971736,40 15.5700884,40 C4.86889104,40 3.18398429,46.8453546 3.18398429,50.063905 C3.18398429,55.6399875 7.41899897,58.4053046 13.5665554,59.4026679 C16.5719333,59.9013496 20.3060255,60.8081287 20.3060255,64.6613933 C20.3060255,67.1549578 18.25684,70.1014433 13.4754073,70.1014433 C11.8816486,70.1014433 6.32600592,69.8296907 3.77589799,63.8000625 L2,64.4347766 C2.40977434,69.1948203 5.6429441,74 14.0218253,74 C23.4025515,74 27,68.3787816 27,63.391965 C27,58.76811 24.2222571,55.23189 15.7978802,53.6452609 C11.5173699,52.8292221 9.65016692,51.4692096 9.65016692,48.8397689 C9.65016692,44.7597314 14.1128166,43.8531084 16.6629245,43.8531084 C17.8012563,43.8531084 22.9014722,44.034433 24.5408833,48.7037364 L26.4080863,48.2508153 L26.4080863,48.2508153 Z" id="Path"></path>
                    <path d="M35,41 L35,74 L41.6043535,74 L41.6043535,59.3696736 C42.8513506,59.509953 44.0522528,59.6968895 45.3453449,59.6968895 C51.2570574,59.6968895 58,56.5651632 58,49.6940898 C58,45.1600314 54.9518017,41 47.377477,41 L35,41 L35,41 Z M41.6043535,45.4870933 L44.6064569,45.4870933 C47.562161,45.4870933 51.1184684,46.8894255 51.1184684,51.0494569 C51.1184684,55.9105773 45.8072069,57.172784 42.6204196,57.172784 L41.6043535,57.172784 L41.6043535,45.4870933 L41.6043535,45.4870933 Z" id="Shape"></path>
                    <path d="M95,57.4340074 C95,47.3445011 89.0229901,41 79.4331123,41 C69.2632304,41 64,48.0935942 64,57.6101924 C64,67.0827443 69.2632304,74 79.3439287,74 C91.9668255,74.0001535 95,63.8666009 95,57.4340074 L95,57.4340074 Z M88.1754352,57.4340074 C88.1754352,63.1175078 86.5696643,69.8585786 79.5221405,69.8585786 C72.3854331,69.8585786 70.9134377,62.7209381 70.9134377,57.0374377 C70.9134377,51.7064607 72.9206901,45.1415749 79.4329569,45.1415749 C86.3022689,45.1417284 88.1754352,51.7943997 88.1754352,57.4340074 L88.1754352,57.4340074 Z" id="Shape"></path>
                    <path d="M132,57.4340074 C132,47.3445011 126.02299,41 116.433112,41 C106.26323,41 101,48.0935942 101,57.6101924 C101,67.0827443 106.26323,74 116.343929,74 C128.966981,74.0001535 132,63.8666009 132,57.4340074 L132,57.4340074 Z M125.175435,57.4340074 C125.175435,63.1175078 123.569509,69.8585786 116.522296,69.8585786 C109.385433,69.8585786 107.913748,62.7209381 107.913748,57.0374377 C107.913748,51.7064607 109.920845,45.1415749 116.433112,45.1415749 C123.302269,45.1417284 125.175435,51.7943997 125.175435,57.4340074 L125.175435,57.4340074 Z" id="Shape"></path>
                    <path d="M172.447865,0 L162.88863,19.8340857 L155.071952,0 L149.110097,0 C149.110097,0 159.80621,26.4185186 159.80621,26.4189829 C159.80621,26.4189829 159.812612,26.7648804 156.973931,30.99427 C154.288114,34.9975496 150.632805,38.4658101 145.525209,38.9548642 C140.734427,39.4137394 135.622928,37.9208861 131.91453,35.232017 L131,36.3721631 L131.498565,36.8706579 C134.344897,39.5725272 140.058328,42 144.992761,42 C148.68289,42 152.336326,40.877497 155.40157,38.8468389 C158.491485,36.8007045 160.666558,33.8690107 162.585713,30.7666123 C163.166409,29.8287426 163.711348,28.8705989 164.256287,27.9123004 C167.23253,22.6800402 177.887733,0.243288955 178,0 L172.447865,0.000154763967 L172.447865,0 Z" id="Path"></path>
                </g>
            </g>
        </g>
    </g>
</svg>