<?xml version="1.0" encoding="UTF-8"?>
<svg width="120px" height="115px" viewBox="0 0 120 115" version="1.1" xmlns="http://www.w3.org/2000/svg" xmlns:xlink="http://www.w3.org/1999/xlink">
    <!-- Generator: Sketch 53.2 (72643) - https://sketchapp.com -->
    <title>sanctuary computer logo</title>
    <desc>Created with Sketch.</desc>
    <defs>
        <polygon id="path-1" points="0.0117419355 10 13.9015484 10 13.9015484 0.159318182 0.0117419355 0.159318182"></polygon>
    </defs>
    <g id="Page-1" stroke="none" stroke-width="1" fill="none" fill-rule="evenodd">
        <g id="Desktop-Active" transform="translate(-1181.000000, -1419.000000)">
            <g id="Logos" transform="translate(94.000000, 1127.000000)">
                <g id="sanctuary-computer-logo" transform="translate(1087.000000, 292.000000)">
                    <path d="M15.9770028,81.6975184 C15.9929771,82.224249 16.1216714,82.605729 16.4267577,82.8559204 C16.7475934,83.1058866 17.181374,83.2376255 17.8232704,83.2376255 C18.8348252,83.2376255 19.9264765,83.0401297 19.9264765,82.2764942 C19.9264765,82.1055713 19.8463801,81.9612215 19.7181358,81.8423186 C19.0595902,81.236995 13.5203375,80.7897581 11.962957,79.6712156 C11.337035,79.2239787 11.1442186,78.5526731 11.1442186,78.0131063 C11.1442186,75.934108 13.4721896,75 18.1121575,75 C23.0412374,75 24.5344958,76.1183173 24.5988429,78.0788632 L19.8142065,78.0788632 C19.7822579,77.552583 19.5734673,77.2235734 19.220233,77.0260776 C18.8829731,76.8288069 18.4012696,76.76305 17.7913218,76.76305 C16.7637927,76.76305 16.2179671,77.0787731 16.2179671,77.5656443 C16.2179671,77.7106697 16.2820892,77.8944287 16.4267577,77.9998198 C17.181374,78.5923073 22.5437847,79.0131964 24.0851908,80.1445751 C24.5344958,80.4738098 25,80.9868036 25,81.9080755 C25,83.7893528 22.9771153,85 17.6950261,85 C11.4011571,85 11.0960707,83.4605684 11,81.697068 L15.9770028,81.697068 L15.9770028,81.6975184 Z" id="Fill-1" fill="#000000" fill-rule="nonzero"></path>
                    <path d="M37.5901116,81.1497073 L35.7821486,77.659224 L33.8934245,81.1497073 L37.5901116,81.1497073 Z M32.9408053,75 L39.0591947,75 L45,85 L39.5919465,85 L38.7363764,83.3381924 L32.71481,83.3381924 L31.8108285,85 L27,85 L32.9408053,75 Z" id="Fill-3" fill="#000000" fill-rule="nonzero"></path>
                    <polygon id="Fill-5" fill="#000000" fill-rule="nonzero" points="45 75 52.4557887 75 56.5265737 81.7036431 56.5768158 81.7036431 56.5768158 75 61 75 61 85 53.7789875 85 49.4567572 77.8808457 49.4229494 77.8808457 49.4229494 85 45 85"></polygon>
                    <path d="M72.7728962,78.7759813 C72.6427759,77.6047695 72.0260695,77.0785011 70.6948392,77.0785011 C68.7789775,77.0785011 68.1301961,78.4206319 68.1301961,79.999437 C68.1301961,81.5789177 68.779205,82.9210485 70.6948392,82.9210485 C72.1880374,82.9210485 72.9184853,82.3551467 72.9673941,81.1314658 L78,81.1314658 C77.9672425,81.9867363 77.853501,82.8158849 76.9447065,83.5263585 C75.6296274,84.5529984 73.3245424,85 70.8083532,85 C64.931558,85 63,83.0394983 63,79.9996622 C63,77.7500169 64.250019,75 70.8083532,75 C73.7460683,75 75.7915953,75.4470016 76.8143587,76.2365168 C77.5448066,76.8024185 77.7884408,77.3813813 77.8048196,78.7762065 L72.7728962,78.7762065 L72.7728962,78.7759813 Z" id="Fill-7" fill="#000000" fill-rule="nonzero"></path>
                    <polygon id="Fill-9" fill="#000000" fill-rule="nonzero" points="83.6556792 77.4378392 80 77.4378392 80 75 92 75 92 77.4378392 88.3447531 77.4378392 88.3447531 85 83.6556792 85"></polygon>
                    <path d="M95.0002276,75 L99.7749256,75 L99.7749256,80.3442343 C99.7749256,82.206402 100.554663,82.7867849 102.048591,82.7867849 C103.542975,82.7867849 104.322485,82.206402 104.322485,80.3442343 L104.322485,75 L109,75 L109,80.6948197 C109,82.2331925 108.642677,82.8810134 107.879099,83.5422296 C106.693788,84.5678884 104.647262,85 102.000114,85 C99.3522833,85 97.3062117,84.5681194 96.1204461,83.5422296 C95.3570952,82.8810134 95,82.2331925 95,80.6948197 L95,75 L95.0002276,75 Z" id="Fill-11" fill="#000000" fill-rule="nonzero"></path>
                    <path d="M27.7728169,108.775896 C27.6426947,107.604936 27.0259789,107.078454 25.6949559,107.078454 C23.7790652,107.078454 23.1300464,108.420555 23.1300464,109.99955 C23.1300464,111.57877 23.7790652,112.92087 25.6949559,112.92087 C27.1881768,112.92087 27.9186357,112.355206 27.9673178,111.131328 L33,111.131328 C32.9674694,111.986804 32.8537262,112.815709 31.944918,113.526392 C30.6298189,114.552783 28.324699,115 25.8084716,115 C19.9318147,115 18,113.039542 18,109.999775 C18,107.749955 19.2500379,105 25.8084716,105 C28.7464588,105 30.7920167,105.447217 31.8147957,106.236714 C32.5452546,106.802378 32.7888926,107.381553 32.8050441,108.776121 L27.7728169,108.776121 L27.7728169,108.775896 Z" id="Fill-13" fill="#000000" fill-rule="nonzero"></path>
                    <g id="Group-17" transform="translate(34.000000, 105.000000)" fill="#000000" fill-rule="nonzero">
                        <path d="M7.92891429,2.26088889 C6.29782857,2.26088889 5.10697143,3.14377778 5.10697143,5.06555556 C5.10697143,6.98755556 6.29782857,7.87044444 7.92891429,7.87044444 C9.56,7.87044444 10.7508571,6.98755556 10.7508571,5.06555556 C10.7508571,3.14377778 9.56,2.26088889 7.92891429,2.26088889 M14.2740571,8.37688889 C13.0018286,9.35066667 10.9629714,10 7.92891429,10 C2.1712,10 0.0507428571,7.87044444 0.0507428571,5.06555556 C0.0507428571,3.24777778 0.964114286,1.93622222 2.31817143,1.17022222 C3.44342857,0.534222222 4.89531429,0.131333333 7.92891429,0.131333333 C13.6866286,0.131333333 15.8070857,2.26088889 15.8070857,5.06555556 C15.8070857,6.50688889 15.2525714,7.63688889 14.2740571,8.37688889" id="Fill-15"></path>
                    </g>
                    <polygon id="Fill-18" fill="#000000" fill-rule="nonzero" points="51 105 58.9160565 105 61.5085422 111.703484 61.5429514 111.703484 64.0502561 105 72 105 72 115 67.1581589 115 67.1581589 107.479023 67.1237496 107.479023 63.7234884 115 58.6754323 115 55.4816266 107.479023 55.430133 107.479023 55.430133 115 51 115"></polygon>
                    <path d="M78.247974,109.681315 L79.3179376,109.681315 C81.1823303,109.681315 81.855805,109.349238 81.855805,108.365569 C81.855805,107.53431 81.3376359,107.105051 79.8356228,107.105051 L78.247974,107.105051 L78.247974,109.681315 Z M73,105 L81.8903979,105 C84.8941821,105 87,105.872739 87,108.476499 C87,110.914101 84.9803017,111.786366 82.3560728,111.786366 L78.2482159,111.786366 L78.2482159,115 L73.0002419,115 L73.0002419,105 L73,105 Z" id="Fill-20" fill="#000000" fill-rule="nonzero"></path>
                    <g id="Group-24" transform="translate(88.000000, 105.000000)">
                        <g id="Fill-22-Clipped">
                            <g>
                                <mask id="mask-2" fill="white">
                                    <use xlink:href="#path-1"></use>
                                </mask>
                                <g id="path-1"></g>
                                <path d="M0.0117419355,0.159318182 L4.74870968,0.159318182 L4.74870968,5.41840909 C4.74870968,7.25090909 5.52254839,7.82204545 7.00474194,7.82204545 C8.4873871,7.82204545 9.26077419,7.25090909 9.26077419,5.41840909 L9.26077419,0.159318182 L13.9015484,0.159318182 L13.9015484,5.76340909 C13.9015484,7.2775 13.5468065,7.91477273 12.7894516,8.56568182 C11.6136774,9.575 9.583,10 6.95687097,10 C4.32983871,10 2.29983871,9.575 1.1233871,8.56568182 C0.366032258,7.91477273 0.0117419355,7.2775 0.0117419355,5.76340909 L0.0117419355,0.159318182 Z" id="Fill-22" fill="#000000" fill-rule="nonzero" mask="url(#mask-2)"></path>
                            </g>
                        </g>
                    </g>
                    <path d="M2.55599468,93.4535011 L117.444005,93.4535011 L117.444005,19.0596185 L59.9998838,2.64905338 L2.55599468,19.0596185 L2.55599468,93.4535011 Z M120,96 L0,96 L0,17.1407158 L59.9998838,0 L120,17.1407158 L120,96 Z" id="Fill-25" fill="#000000" fill-rule="nonzero"></path>
                </g>
            </g>
        </g>
    </g>
</svg>